<svg xmlns="http://www.w3.org/2000/svg" width="120" height="100" fill="none"><path fill="url(#a)" d="M55.876 89.319C47.612 89.319 41 81.822 41 72.659 41 63.497 47.612 56 55.876 56c8.265 0 14.876 7.497 14.876 16.66.207 9.162-6.611 16.659-14.876 16.659Z"/><path fill="url(#b)" d="M29.339 76.996c-2.273 0-4.339-2.29-4.339-4.998C25 69.291 26.86 67 29.339 67c2.273 0 4.339 2.291 4.339 4.998-.207 2.707-2.066 4.998-4.34 4.998Z"/><path fill="url(#c)" d="M81.339 77.996c-2.273 0-4.339-2.29-4.339-4.998C77 70.291 78.86 68 81.339 68c2.273 0 4.339 2.291 4.339 4.998-.207 2.707-2.066 4.998-4.34 4.998Z"/><path fill="#41B296" d="M95.81 95H13.24c-.62 0-1.24-.624-1.24-1.25 0-.624.62-1.249 1.24-1.249h81.124V52.728H14.686v17.908c0 .625-.62 1.25-1.24 1.25S12 71.26 12 70.636V51.478c0-.624.62-1.249 1.24-1.249h82.363c.62 0 1.24.625 1.24 1.25V93.75c.207.624-.413 1.25-1.033 1.25Z"/><path fill="#41B296" d="M13.24 90.21c-.62 0-1.24-.624-1.24-1.249v-14.16c0-.624.62-1.25 1.24-1.25s1.24.626 1.24 1.25v13.952c.206.833-.414 1.458-1.24 1.458Zm42.47-.624c-8.47 0-15.289-7.705-15.289-17.075 0-9.371 6.819-17.076 15.29-17.076C64.18 55.435 71 63.14 71 72.511c0 9.37-6.818 17.075-15.29 17.075Zm0-31.652c-7.024 0-12.81 6.455-12.81 14.577 0 8.12 5.786 14.576 12.81 14.576 7.025 0 12.81-6.455 12.81-14.576 0-8.122-5.785-14.577-12.81-14.577Z"/><path fill="#41B296" d="M47.033 72.094c-.826-.208-1.446-.833-1.24-1.458.62-4.373 3.513-8.121 7.232-9.37.62-.209 1.446.208 1.653.833.206.624-.207 1.457-.827 1.666-2.686.832-4.958 3.748-5.372 7.288a1.555 1.555 0 0 1-1.446 1.041ZM29.678 78.55c-2.893 0-5.165-2.708-5.165-6.04 0-3.331 2.272-6.038 5.165-6.038 2.893 0 5.165 2.707 5.165 6.039 0 3.331-2.273 6.038-5.165 6.038Zm0-9.58c-1.446 0-2.686 1.666-2.686 3.54 0 1.875 1.24 3.54 2.686 3.54s2.686-1.665 2.686-3.54c0-1.874-1.24-3.54-2.686-3.54Zm51.066 9.58c-2.893 0-5.165-2.708-5.165-6.04 0-3.331 2.272-6.038 5.165-6.038 2.892 0 5.165 2.707 5.165 6.039 0 3.331-2.273 6.038-5.165 6.038Zm0-9.58c-1.446 0-2.686 1.666-2.686 3.54 0 1.875 1.24 3.54 2.686 3.54s2.686-1.665 2.686-3.54c-.207-1.874-1.24-3.54-2.686-3.54Zm-39.19 20.616h-18.52c-.62 0-1.24-.625-1.24-1.25 0-1.665-1.447-3.123-3.1-3.123-.62 0-1.24-.625-1.24-1.25V75.01c0-.624.62-1.25 1.24-1.25s1.24.626 1.24 1.25v7.913c2.066.417 3.719 2.083 4.132 4.165h17.488c.62 0 1.24.625 1.24 1.25 0 .624-.414 1.249-1.24 1.249Z"/><path fill="#41B296" d="M18.694 71.886c-.62 0-1.24-.625-1.24-1.25v-9.578c0-.625.62-1.25 1.24-1.25 1.653 0 3.1-1.458 3.1-3.123 0-.625.62-1.25 1.24-1.25H52.71c.62 0 1.24.625 1.24 1.25 0 .624-.62 1.249-1.24 1.249H24.066c-.413 2.082-2.066 3.748-4.132 4.165v8.33c0 .832-.62 1.457-1.24 1.457Zm67.694 17.7H67.173c-.62 0-1.24-.625-1.24-1.25 0-.624.62-1.249 1.24-1.249H85.15c.413-2.082 2.066-3.748 4.132-4.165V62.1c-2.066-.417-3.72-2.083-4.132-4.165H63.66c-.62 0-1.24-.625-1.24-1.25 0-.624.62-1.249 1.24-1.249h22.52c.62 0 1.24.625 1.24 1.25 0 1.665 1.447 3.123 3.1 3.123.62 0 1.24.625 1.24 1.25v23.114c0 .625-.62 1.25-1.24 1.25-1.653 0-3.1 1.457-3.1 3.123.207.625-.413 1.041-1.033 1.041ZM47.132 44.815H29.777c-.62 0-1.24-.625-1.24-1.25 0-.624.62-1.25 1.24-1.25h17.355c.62 0 1.24.626 1.24 1.25 0 .625-.62 1.25-1.24 1.25Zm-22.934 0h-3.925c-.62 0-1.24-.625-1.24-1.25 0-.624.62-1.25 1.24-1.25h3.925c.62 0 1.24.626 1.24 1.25 0 .625-.62 1.25-1.24 1.25Zm7.372-6.872H10.082c-.62 0-1.24-.625-1.24-1.25 0-.624.62-1.457 1.24-1.457H31.57c.62 0 1.24.625 1.24 1.25 0 .624-.62 1.457-1.24 1.457Zm-26.1 0h-.619c-.62 0-1.24-.625-1.24-1.25 0-.624.414-1.457 1.24-1.457h.62c.62 0 1.24.625 1.24 1.25 0 .624-.62 1.457-1.24 1.457Zm7.712 52.267h-9.43c-.62 0-1.24-.624-1.24-1.249 0-.624.62-1.25 1.24-1.25h9.43c.62 0 1.24.626 1.24 1.25 0 .625-.62 1.25-1.24 1.25Z"/><path fill="#41B296" d="M17.76 71.886H7.678c-.62 0-1.24-.625-1.24-1.25s.62-1.25 1.24-1.25H17.76c.62 0 1.24.625 1.24 1.25s-.413 1.25-1.24 1.25Zm-13.628 0H3.24c-.62 0-1.24-.625-1.24-1.25s.62-1.25 1.24-1.25h.892c.62 0 1.24.625 1.24 1.25s-.62 1.25-1.24 1.25Zm63.042-46.021c-11.57 0-23.968-3.54-23.968-9.995 0-6.455 12.397-9.995 23.968-9.995 1.446 0 2.892 0 4.338.208.62 0 1.24.624 1.24 1.457 0 .625-.62 1.25-1.446 1.25-1.24 0-2.686-.208-4.132-.208-12.604 0-21.488 3.956-21.488 7.496 0 3.54 8.884 7.497 21.488 7.497.62 0 1.24.625 1.24 1.25 0 .416-.414 1.04-1.24 1.04Z"/><path fill="#41B296" d="M50.851 16.286c-.413 0-.826-.208-1.033-.625-.413-.624 0-1.457.62-1.665 1.24-.625 5.992-2.916 14.67-3.124.62 0 1.24.625 1.24 1.25 0 .624-.62 1.249-1.24 1.249-8.058.416-12.397 2.29-13.43 2.915h-.827Zm-.413 14.785h-.413c-4.546-1.874-6.819-4.373-6.819-7.08V15.87c0-.625.62-1.25 1.24-1.25s1.24.625 1.24 1.25c0 1.25 1.033 2.29 2.066 2.915 3.719 2.707 11.364 4.373 19.422 4.373.62 0 1.24.625 1.24 1.25 0 .624-.62 1.25-1.24 1.25-8.678 0-16.736-1.875-20.868-4.998-.207 0-.413 0-.62-.209v3.332c0 1.666 1.86 3.332 5.165 4.79.62.208 1.033 1.04.62 1.665 0 .417-.413.833-1.033.833Zm16.736 2.707c-3.926 0-7.852-.416-11.158-1.04-.62-.209-1.033-.834-1.033-1.667.207-.624.827-1.25 1.447-1.04 3.306.624 7.025 1.04 10.744 1.04.62 0 1.24.625 1.24 1.25 0 .833-.414 1.457-1.24 1.457Z"/><path fill="#41B296" d="M50.438 38.984h-.413c-4.546-1.874-6.819-4.373-6.819-7.08v-8.12c0-.626.62-1.25 1.24-1.25s1.24.624 1.24 1.25c0 1.248 1.033 2.29 2.066 2.915a9.829 9.829 0 0 0 3.306 1.665c.62.209 1.033 1.041.62 1.666-.414.625-1.033 1.041-1.653.625-1.447-.625-2.686-1.25-3.72-2.082-.206-.209-.413-.209-.62-.417v3.332c0 1.666 1.86 3.332 5.166 4.79.62.208 1.033 1.04.62 1.665 0 .833-.413 1.041-1.033 1.041ZM67.174 41.9c-3.926 0-7.852-.417-11.158-1.041-.62-.209-1.24-.833-1.033-1.458.207-.625.827-1.25 1.447-1.041 3.306.624 7.025 1.04 10.744 1.04.62 0 1.24.626 1.24 1.25 0 .625-.414 1.25-1.24 1.25Z"/><path fill="#41B296" d="M50.438 38.984h-.413c-1.447-.624-2.686-1.249-3.72-2.082-.206-.208-.413-.208-.62-.416v1.04c0 .626-.619 1.25-1.239 1.25-.62 0-1.24-.624-1.24-1.25v-5.83c0-.625.62-1.25 1.24-1.25s1.24.625 1.24 1.25c0 1.25 1.033 2.29 2.066 2.915a9.825 9.825 0 0 0 3.306 1.666c.62.209 1.033 1.042.62 1.666-.207.833-.62 1.041-1.24 1.041ZM94.24 23.783c-11.57 0-23.968-3.54-23.968-9.996 0-6.455 12.397-9.995 23.967-9.995 11.571 0 23.967 3.54 23.967 9.995-.206 6.664-12.396 9.996-23.967 9.996Zm0-17.284c-12.604 0-21.282 3.957-21.282 7.288 0 3.54 8.678 7.289 21.281 7.289 12.604 0 21.281-3.957 21.281-7.289 0-3.331-8.677-7.288-21.28-7.288Z"/><path fill="#41B296" d="M77.504 14.829c-.413 0-.827-.209-1.033-.625-.413-.625-.207-1.458.413-1.874 2.273-1.458 7.438-3.124 14.256-3.54.62 0 1.24.416 1.447 1.249 0 .625-.414 1.25-1.24 1.458-6.405.416-10.95 1.874-13.223 3.123-.207.209-.413.209-.62.209Z"/><path fill="#41B296" d="M94.24 31.904c-3.513 0-7.025-.208-10.125-.833-.62-.208-1.24-.833-1.033-1.458.207-.624.827-1.25 1.447-1.04 3.099.624 6.198.832 9.71.832 12.604 0 21.281-3.956 21.281-7.288v-3.54c-.206.208-.413.208-.413.416-4.132 3.124-12.19 4.998-20.868 4.998-8.677 0-16.735-1.874-20.867-4.998-.207-.208-.414-.208-.414-.416v3.332c0 1.666 2.273 3.54 5.992 4.997.62.209 1.033 1.042.827 1.666-.207.625-1.034 1.041-1.653.833-4.959-1.874-7.852-4.581-7.852-7.496v-7.913c0-.625.62-1.25 1.24-1.25s1.24.625 1.24 1.25c0 1.249 1.033 2.29 2.066 2.915 3.719 2.707 11.157 4.373 19.215 4.373s15.702-1.666 19.215-4.373c.826-.625 2.066-1.666 2.066-2.916 0-.624.62-1.249 1.239-1.249.62 0 1.24.625 1.24 1.25v7.913c.207 6.455-11.983 9.995-23.554 9.995Z"/><path fill="#41B296" d="M94.24 39.817c-3.513 0-7.025-.208-10.124-.833-.62-.208-1.24-.833-1.034-1.458.207-.624.827-1.249 1.447-1.04 3.099.624 6.198.832 9.71.832 12.604 0 21.282-3.956 21.282-7.288v-3.332c-.207.208-.414.208-.414.417-4.132 3.123-12.19 4.997-20.867 4.997-3.513 0-7.025-.208-10.124-.833-.62-.208-1.24-.833-1.034-1.457.207-.625.827-1.25 1.447-1.041 3.099.624 6.198.832 9.71.832 8.058 0 15.703-1.665 19.215-4.373.827-.624 2.067-1.665 2.067-2.915 0-.625.619-1.25 1.239-1.25.62 0 1.24.625 1.24 1.25v7.913c0 6.04-12.19 9.58-23.76 9.58Zm-15.703-2.499h-.413c-4.959-1.874-7.852-4.581-7.852-7.496v-7.913c0-.625.62-1.25 1.24-1.25s1.24.625 1.24 1.25c0 1.249 1.033 2.29 2.066 2.915 1.033.833 2.48 1.458 4.132 2.082.62.209 1.033 1.042.827 1.666-.207.625-1.034 1.041-1.653.833-1.86-.625-3.513-1.457-4.752-2.499-.207-.208-.414-.208-.414-.416v3.332c0 1.666 2.273 3.54 6.199 4.997.62.209 1.033 1.042.826 1.666-.413.625-1.033.833-1.446.833Z"/><path fill="#41B296" d="M94.24 47.73c-3.513 0-7.025-.208-10.124-.833-.62-.208-1.24-.833-1.034-1.457.207-.625.827-1.25 1.447-1.042 3.099.625 6.198.833 9.71.833 12.604 0 21.282-3.956 21.282-7.288v-3.332c-.207.208-.414.208-.414.417-4.132 3.123-12.19 4.997-20.867 4.997-3.513 0-7.025-.208-10.124-.833-.62-.208-1.24-.833-1.034-1.457.207-.625.827-1.25 1.447-1.041 3.099.624 6.198.832 9.71.832 8.058 0 15.703-1.665 19.215-4.373.827-.624 2.067-1.665 2.067-2.915 0-.625.619-1.25 1.239-1.25.62 0 1.24.625 1.24 1.25v7.913c0 6.04-12.19 9.58-23.76 9.58Zm-15.91-2.499h-.413c-4.959-1.874-7.645-4.373-7.645-7.496v-7.913c0-.625.62-1.25 1.24-1.25s1.24.625 1.24 1.25c0 1.25 1.033 2.29 2.066 2.915 1.033.833 2.48 1.458 4.132 2.082.62.209 1.033 1.042.827 1.666-.207.625-1.034 1.041-1.653.833-1.86-.624-3.513-1.457-4.752-2.499-.207-.208-.414-.208-.414-.416v3.332c0 1.666 2.273 3.54 5.992 4.997.62.209 1.033 1.042.827 1.666-.414.625-.827.833-1.447.833Z"/><path fill="#41B296" d="M94.446 47.938a61.63 61.63 0 0 1-11.157-1.04c-.62-.21-1.24-.834-1.033-1.459.207-.624.826-1.249 1.446-1.04 3.306.624 7.025 1.04 10.744 1.04.62 0 1.24.625 1.24 1.25s-.62 1.25-1.24 1.25ZM77.71 45.023h-.413c-1.446-.625-2.686-1.25-3.719-2.082-.206-.209-.413-.209-.62-.417v3.124c0 .624-.62 1.25-1.24 1.25s-1.239-.626-1.239-1.25v-7.913c0-.625.62-1.25 1.24-1.25s1.24.625 1.24 1.25c0 1.25 1.032 2.29 2.066 2.915a9.83 9.83 0 0 0 3.305 1.666c.62.208 1.033 1.041.62 1.666-.207.833-.826 1.041-1.24 1.041Zm39.05 7.497c-.62 0-1.24.624-1.24 1.249 0 1.25-1.033 2.29-2.066 2.915-2.892 2.083-8.057 3.54-14.05 4.165v2.499c6.612-.625 12.397-2.29 15.703-4.581.207-.209.413-.209.413-.417v3.332c0 2.915-6.404 6.247-16.115 7.08v2.499c9.711-.833 18.595-4.165 18.595-9.787V53.56c0-.417-.413-1.041-1.24-1.041Z"/><path fill="#41B296" d="M116.76 44.606c-.62 0-1.24.625-1.24 1.25 0 1.25-1.033 2.29-2.066 2.915-2.892 2.083-8.057 3.54-14.05 4.165v2.499c6.612-.625 12.397-2.29 15.703-4.581.207-.209.413-.209.413-.417v3.332c0 2.915-6.404 6.247-16.115 7.08v2.499C109.116 62.515 118 59.183 118 53.56v-7.913c0-.625-.413-1.042-1.24-1.042Z"/><path fill="#41B296" d="M116.76 36.485c-.62 0-1.239.625-1.239 1.25 0 1.25-1.034 2.29-2.067 2.915-3.719 2.707-11.157 4.373-19.214 4.373-3.306 0-6.612-.208-9.711-.833-.62-.208-1.447.417-1.447 1.041-.206.625.414 1.458 1.034 1.458 3.099.625 6.611.833 10.124.833 8.677 0 16.735-1.874 20.867-4.998.207-.208.414-.208.414-.416v3.332c0 2.915-6.405 6.247-16.116 7.08v2.498c9.711-.832 18.595-4.164 18.595-9.787v-7.913c0-.208-.413-.833-1.24-.833Zm0 23.948c-.62 0-1.24.624-1.24 1.249 0 1.25-1.033 2.29-2.066 2.915-2.892 2.083-8.057 3.54-14.05 4.165v2.499c6.612-.625 12.397-2.29 15.703-4.581.207-.209.413-.209.413-.417v3.332c0 2.915-6.404 6.247-16.115 7.08v2.499c9.711-.833 18.595-4.165 18.595-9.787v-7.913c0-.417-.413-1.041-1.24-1.041Z"/><path fill="#41B296" d="M116.76 68.346c-.62 0-1.24.624-1.24 1.25 0 1.249-1.033 2.29-2.066 2.914-2.892 2.083-8.057 3.54-14.05 4.165v2.5c6.612-.626 12.397-2.291 15.703-4.582.207-.208.413-.208.413-.417v3.332c0 2.916-6.404 6.247-16.115 7.08v2.707c9.711-.833 18.595-4.164 18.595-9.787v-7.913c0-.625-.413-1.25-1.24-1.25Z"/><defs><linearGradient id="a" x1="48.719" x2="55.878" y1="59.983" y2="89.319" gradientUnits="userSpaceOnUse"><stop stop-color="#FFD600" stop-opacity="0"/><stop offset="1" stop-color="#FFD600"/></linearGradient><linearGradient id="b" x1="29.339" x2="29.339" y1="67.001" y2="76.996" gradientUnits="userSpaceOnUse"><stop stop-color="#FFF6A8" stop-opacity="0"/><stop offset=".422" stop-color="#FFF6A8"/></linearGradient><linearGradient id="c" x1="81.339" x2="81.339" y1="68.001" y2="77.996" gradientUnits="userSpaceOnUse"><stop stop-color="#FFF6A8" stop-opacity="0"/><stop offset=".422" stop-color="#FFF6A8"/></linearGradient></defs></svg>